# Blender v2.78 (sub 0) OBJ File: 'siecp1.blend'
# www.blender.org
mtllib siecp1.mtl
o Cube.002_Cube.004
v -0.163762 5.499949 -0.000171
v -0.163762 5.520058 -0.000171
v 0.105603 5.499949 -1.000175
v 0.105603 5.520058 -1.000175
v -0.144271 5.499949 -0.000169
v -0.144271 5.520058 -0.000169
v 0.125094 5.499949 -1.000173
v 0.125094 5.520058 -1.000173
v -0.102913 5.499949 -0.000165
v -0.102913 5.520058 -0.000165
v 0.166452 5.499949 -1.000169
v 0.166452 5.520058 -1.000169
v -0.083422 5.499949 -0.000163
v -0.083422 5.520058 -0.000163
v 0.185943 5.499949 -1.000167
v 0.185943 5.520058 -1.000167
v -0.009636 7.500343 -0.000160
v -0.009636 7.520452 -0.000160
v -0.009636 7.060588 -0.100345
v -0.009636 7.080697 -0.100345
v 0.009856 7.500343 -0.000160
v 0.009856 7.520452 -0.000160
v 0.009856 7.060588 -0.100345
v 0.009856 7.080697 -0.100345
v -0.009636 6.838832 -0.200401
v -0.009636 6.818723 -0.200401
v 0.009856 6.818723 -0.200401
v 0.009856 6.838832 -0.200401
v -0.009636 6.560320 -0.301178
v -0.009636 6.540211 -0.301178
v 0.009856 6.540211 -0.301178
v 0.009856 6.560320 -0.301178
v -0.009636 6.400455 -0.401191
v -0.009636 6.380345 -0.401191
v 0.009856 6.380345 -0.401191
v 0.009856 6.400455 -0.401191
v -0.009636 6.357383 -0.501205
v -0.009636 6.337274 -0.501205
v 0.009856 6.337274 -0.501205
v 0.009856 6.357383 -0.501205
v -0.009636 6.400455 -0.601982
v -0.009636 6.380345 -0.601982
v 0.009856 6.380345 -0.601982
v 0.009856 6.400455 -0.601982
v -0.009636 6.560320 -0.701232
v -0.009636 6.540211 -0.701232
v 0.009856 6.540211 -0.701232
v 0.009856 6.560320 -0.701232
v -0.009636 6.838832 -0.802009
v -0.009636 6.818723 -0.802009
v 0.009856 6.818723 -0.802009
v 0.009856 6.838832 -0.802009
v -0.009636 7.080697 -0.903550
v -0.009636 7.060588 -0.903550
v 0.009856 7.060588 -0.903550
v 0.009856 7.080697 -0.903550
v -0.009636 7.520452 -1.000187
v -0.009636 7.500343 -1.000187
v 0.009856 7.500343 -1.000187
v 0.009856 7.520452 -1.000187
v -0.163618 5.503878 -0.000706
v -0.008996 7.507670 -0.000696
v -0.163506 5.503878 -0.001123
v -0.008996 7.507670 -0.001112
v -0.144127 5.503878 -0.000704
v 0.010496 7.507670 -0.000696
v -0.144015 5.503878 -0.001121
v 0.010496 7.507670 -0.001112
v -0.099830 5.503878 -0.011612
v -0.009368 7.456530 -0.011607
v -0.099717 5.503878 -0.012029
v -0.009368 7.456530 -0.012024
v -0.080338 5.503878 -0.011610
v 0.010124 7.456530 -0.011607
v -0.080226 5.503878 -0.012026
v 0.010124 7.456530 -0.012024
v -0.106437 5.198148 -0.100351
v -0.136837 5.503878 -0.100132
v -0.008996 7.070137 -0.100123
v -0.136724 5.503878 -0.100549
v -0.008996 7.070137 -0.100540
v -0.117345 5.503878 -0.100130
v 0.010496 7.070137 -0.100123
v -0.117233 5.503878 -0.100547
v 0.010496 7.070137 -0.100540
v -0.073048 5.503878 -0.111037
v -0.009368 7.041726 -0.111035
v -0.072936 5.503878 -0.111454
v -0.009368 7.041726 -0.111451
v -0.053557 5.503878 -0.111035
v 0.010124 7.041726 -0.111035
v -0.053444 5.503878 -0.111452
v 0.010124 7.041726 -0.111451
v -0.109781 5.503878 -0.200576
v -0.008996 6.830165 -0.200568
v -0.109668 5.503878 -0.200993
v -0.008996 6.830165 -0.200985
v -0.090289 5.503878 -0.200574
v 0.010496 6.830165 -0.200568
v -0.090177 5.503878 -0.200991
v 0.010496 6.830165 -0.200985
v -0.045992 5.503878 -0.211481
v -0.009368 6.800708 -0.211480
v -0.045880 5.503878 -0.211898
v -0.009368 6.800708 -0.211897
v -0.026501 5.503878 -0.211479
v 0.010124 6.800708 -0.211480
v -0.026388 5.503878 -0.211896
v 0.010124 6.800708 -0.211897
v -0.082816 5.503878 -0.300680
v -0.008996 6.553053 -0.300674
v -0.082704 5.503878 -0.301097
v -0.008996 6.553053 -0.301091
v -0.063325 5.503878 -0.300678
v 0.010496 6.553053 -0.300674
v -0.063212 5.503878 -0.301095
v 0.010496 6.553053 -0.301091
v -0.019028 5.503878 -0.311585
v -0.009368 6.532597 -0.311585
v -0.018915 5.503878 -0.312002
v -0.009368 6.532597 -0.312002
v 0.000464 5.503878 -0.311583
v 0.010124 6.532597 -0.311585
v 0.000576 5.503878 -0.312000
v 0.010124 6.532597 -0.312002
v -0.055943 5.503878 -0.400445
v -0.008996 6.394859 -0.400440
v -0.055831 5.503878 -0.400862
v -0.008996 6.394859 -0.400857
v -0.036452 5.503878 -0.400443
v 0.010496 6.394859 -0.400440
v -0.036339 5.503878 -0.400860
v 0.010496 6.394859 -0.400857
v 0.007846 5.503878 -0.411350
v -0.009368 6.386677 -0.411352
v 0.007958 5.503878 -0.411767
v -0.009368 6.386677 -0.411769
v 0.027337 5.503878 -0.411348
v 0.010124 6.386677 -0.411352
v 0.027449 5.503878 -0.411765
v 0.010124 6.386677 -0.411769
v -0.028979 5.503878 -0.500550
v -0.008996 6.353948 -0.500546
v -0.028866 5.503878 -0.500967
v -0.008996 6.353948 -0.500963
v -0.009487 5.503878 -0.500548
v 0.010496 6.353948 -0.500546
v -0.009375 5.503878 -0.500964
v 0.010496 6.353948 -0.500963
v 0.034810 5.503878 -0.511455
v -0.009368 6.353948 -0.511458
v 0.034922 5.503878 -0.511872
v -0.009368 6.353948 -0.511875
v 0.054301 5.503878 -0.511453
v 0.010124 6.353948 -0.511458
v 0.054414 5.503878 -0.511870
v 0.010124 6.353948 -0.511875
v -0.002105 5.503878 -0.600315
v -0.008996 6.388313 -0.600312
v -0.001993 5.503878 -0.600732
v -0.008996 6.388313 -0.600729
v 0.017386 5.503878 -0.600312
v 0.010496 6.388313 -0.600312
v 0.017498 5.503878 -0.600729
v 0.010496 6.388313 -0.600729
v 0.061683 5.503878 -0.611220
v -0.009368 6.407951 -0.611224
v 0.061795 5.503878 -0.611637
v -0.009368 6.407951 -0.611641
v 0.081175 5.503878 -0.611218
v 0.010124 6.407951 -0.611224
v 0.081287 5.503878 -0.611635
v 0.010124 6.407951 -0.611641
v 0.024768 5.503878 -0.700080
v -0.008996 6.545416 -0.700079
v 0.024880 5.503878 -0.700497
v -0.008996 6.545416 -0.700496
v 0.044259 5.503878 -0.700078
v 0.010496 6.545416 -0.700079
v 0.044371 5.503878 -0.700494
v 0.010496 6.545416 -0.700496
v 0.088556 5.503878 -0.710985
v -0.009368 6.584692 -0.710991
v 0.088669 5.503878 -0.711402
v -0.009368 6.584692 -0.711408
v 0.108048 5.503878 -0.710983
v 0.010124 6.584692 -0.710991
v 0.108160 5.503878 -0.711400
v 0.010124 6.584692 -0.711408
v 0.051641 5.503878 -0.799845
v -0.008996 6.830165 -0.799845
v 0.051753 5.503878 -0.800262
v -0.008996 6.830165 -0.800262
v 0.071132 5.503878 -0.799843
v 0.010496 6.830165 -0.799845
v 0.071244 5.503878 -0.800259
v 0.010496 6.830165 -0.800262
v 0.115429 5.503878 -0.810750
v -0.009368 6.849803 -0.810757
v 0.115542 5.503878 -0.811167
v -0.009368 6.849803 -0.811174
v 0.134921 5.503878 -0.810748
v 0.010124 6.849803 -0.810757
v 0.135033 5.503878 -0.811165
v 0.010124 6.849803 -0.811174
v 0.078971 5.503878 -0.901306
v -0.008996 7.065819 -0.901308
v 0.079083 5.503878 -0.901723
v -0.008996 7.065819 -0.901725
v 0.098462 5.503878 -0.901304
v 0.010496 7.065819 -0.901308
v 0.098575 5.503878 -0.901721
v 0.010496 7.065819 -0.901725
v 0.142759 5.503878 -0.912211
v -0.009368 7.114913 -0.912220
v 0.142872 5.503878 -0.912628
v -0.009368 7.114913 -0.912637
v 0.162251 5.503878 -0.912209
v 0.010124 7.114913 -0.912220
v 0.162363 5.503878 -0.912626
v 0.010124 7.114913 -0.912637
vn -0.9656 0.0000 -0.2601
vn 0.0001 0.0000 -1.0000
vn 0.9656 0.0000 0.2601
vn -0.0001 0.0000 1.0000
vn 0.0000 -1.0000 -0.0000
vn 0.0000 1.0000 -0.0000
vn -1.0000 0.0000 0.0000
vn 1.0000 0.0000 0.0000
vn 0.0000 0.0000 1.0000
vn 0.0000 -0.2221 0.9750
vn 0.0000 0.2221 -0.9750
vn 0.0000 -0.3823 0.9241
vn 0.0000 0.3823 -0.9241
vn 0.0000 0.5304 -0.8478
vn 0.0000 -0.3403 0.9403
vn 0.0000 0.3403 -0.9403
vn 0.0000 0.9185 -0.3955
vn 0.0000 -0.5304 0.8478
vn 0.0000 -0.9185 0.3955
vn 0.0000 0.5274 0.8496
vn 0.0000 -0.9195 -0.3930
vn 0.0000 0.9195 0.3930
vn 0.0000 -0.5274 -0.8496
vn 0.0000 -0.3403 -0.9403
vn 0.0000 0.3403 0.9403
vn 0.0000 0.2146 0.9767
vn 0.0000 -0.3871 -0.9220
vn 0.0000 0.3871 0.9220
vn 0.0000 0.0000 -1.0000
vn 0.0000 -0.2146 -0.9767
vn -0.9629 0.0743 -0.2595
vn 0.9630 -0.0743 0.2592
vn 0.0000 -1.0000 0.0018
vn -0.9646 0.0447 -0.2598
vn 0.9646 -0.0447 0.2598
vn -0.9626 0.0786 -0.2593
vn 0.9626 -0.0786 0.2592
vn -0.9648 0.0400 -0.2599
vn 0.9648 -0.0400 0.2599
vn -0.9630 0.0732 -0.2594
vn 0.9630 -0.0732 0.2595
vn -0.9652 0.0273 -0.2600
vn 0.9652 -0.0273 0.2600
vn -0.9633 0.0678 -0.2597
vn 0.9633 -0.0678 0.2597
vn -0.9656 0.0091 -0.2600
vn 0.9655 -0.0091 0.2601
vn -0.9644 0.0508 -0.2597
vn 0.9644 -0.0508 0.2597
vn -0.9654 -0.0189 -0.2601
vn 0.9654 0.0189 0.2601
vn -0.9653 0.0227 -0.2600
vn 0.9653 -0.0227 0.2601
vn -0.9643 -0.0502 -0.2599
vn 0.9644 0.0502 0.2597
vn -0.9656 -0.0076 -0.2600
vn 0.9655 0.0076 0.2601
vn -0.9628 -0.0758 -0.2594
vn 0.9628 0.0758 0.2593
vn -0.9651 -0.0314 -0.2600
vn 0.9651 0.0314 0.2599
vn -0.9619 -0.0872 -0.2593
vn 0.9619 0.0872 0.2590
vn -0.9646 -0.0442 -0.2599
vn 0.9646 0.0442 0.2598
vn -0.9617 -0.0893 -0.2591
vn 0.9618 0.0893 0.2589
vn -0.9641 -0.0544 -0.2598
vn 0.9642 0.0544 0.2595
vn -0.9615 -0.0909 -0.2592
vn 0.9616 0.0908 0.2589
vn 0.0000 0.9184 -0.3955
vn 0.0000 -0.9184 0.3955
vn 0.0000 0.5275 0.8496
vn 0.0000 -0.5275 -0.8496
vn -0.9970 0.0769 0.0000
vn 0.9970 -0.0769 0.0000
vn 0.0000 -1.0000 -0.0010
vn -0.9989 0.0462 0.0000
vn 0.9989 -0.0462 0.0000
vn -0.9967 0.0813 0.0000
vn 0.9967 -0.0813 0.0000
vn -0.9991 0.0413 0.0000
vn 0.9991 -0.0413 0.0000
vn -0.9971 0.0757 0.0000
vn 0.9971 -0.0757 0.0000
vn -0.9996 0.0281 0.0000
vn 0.9996 -0.0281 0.0000
vn -0.9975 0.0701 0.0000
vn 0.9975 -0.0701 0.0000
vn 0.0000 -1.0000 0.0008
vn -1.0000 0.0093 0.0000
vn 1.0000 -0.0093 0.0000
vn 0.0000 -1.0000 -0.0015
vn -0.9986 0.0525 0.0000
vn 0.9986 -0.0525 0.0000
vn -0.9998 -0.0195 0.0000
vn 0.9998 0.0195 0.0000
vn -0.9997 0.0234 0.0000
vn 0.9997 -0.0234 0.0000
vn -0.9987 -0.0519 0.0000
vn 0.9987 0.0519 0.0000
vn -1.0000 -0.0078 0.0000
vn 1.0000 0.0078 0.0000
vn -0.9969 -0.0783 0.0000
vn 0.9969 0.0783 0.0000
vn -0.9995 -0.0324 0.0000
vn 0.9995 0.0324 0.0000
vn 0.0000 -1.0000 -0.0001
vn -0.9959 -0.0902 0.0000
vn 0.9959 0.0903 0.0000
vn -0.9990 -0.0457 0.0000
vn 0.9990 0.0457 0.0000
vn -0.9957 -0.0923 0.0000
vn 0.9957 0.0923 0.0000
vn -0.9984 -0.0562 0.0000
vn 0.9984 0.0562 0.0000
vn -0.9956 -0.0940 0.0000
vn 0.9956 0.0940 0.0000
usemtl None
s off
f 2//1 3//1 1//1
f 4//2 7//2 3//2
f 8//3 5//3 7//3
f 6//4 1//4 5//4
f 3//5 5//5 1//5
f 4//6 6//6 8//6
f 10//1 11//1 9//1
f 12//2 15//2 11//2
f 16//3 13//3 15//3
f 14//4 9//4 13//4
f 11//5 13//5 9//5
f 12//6 14//6 16//6
f 17//7 20//7 19//7
f 23//8 28//8 24//8
f 24//8 21//8 23//8
f 22//9 17//9 21//9
f 23//10 17//10 19//10
f 20//11 22//11 24//11
f 27//8 32//8 28//8
f 19//12 27//12 23//12
f 24//13 25//13 20//13
f 19//7 25//7 26//7
f 32//14 33//14 29//14
f 26//15 31//15 27//15
f 28//16 29//16 25//16
f 26//7 29//7 30//7
f 36//17 37//17 33//17
f 30//7 33//7 34//7
f 31//8 36//8 32//8
f 30//18 35//18 31//18
f 40//8 43//8 44//8
f 34//7 37//7 38//7
f 35//8 40//8 36//8
f 34//19 39//19 35//19
f 44//20 45//20 41//20
f 38//21 43//21 39//21
f 40//22 41//22 37//22
f 37//7 42//7 38//7
f 45//7 50//7 46//7
f 41//7 46//7 42//7
f 44//8 47//8 48//8
f 42//23 47//23 43//23
f 52//8 55//8 56//8
f 48//8 51//8 52//8
f 46//24 51//24 47//24
f 48//25 49//25 45//25
f 56//26 57//26 53//26
f 50//27 55//27 51//27
f 52//28 53//28 49//28
f 49//7 54//7 50//7
f 57//29 59//29 58//29
f 53//7 58//7 54//7
f 56//8 59//8 60//8
f 54//30 59//30 55//30
f 62//31 63//31 61//31
f 64//2 67//2 63//2
f 67//32 66//32 65//32
f 65//4 62//4 61//4
f 63//33 65//33 61//33
f 64//6 66//6 68//6
f 70//34 71//34 69//34
f 72//2 75//2 71//2
f 75//35 74//35 73//35
f 73//4 70//4 69//4
f 71//33 73//33 69//33
f 72//6 74//6 76//6
f 79//36 80//36 78//36
f 81//2 84//2 80//2
f 84//37 83//37 82//37
f 82//4 79//4 78//4
f 80//33 82//33 78//33
f 81//6 83//6 85//6
f 87//38 88//38 86//38
f 89//2 92//2 88//2
f 92//39 91//39 90//39
f 90//4 87//4 86//4
f 88//33 90//33 86//33
f 89//6 91//6 93//6
f 95//40 96//40 94//40
f 97//2 100//2 96//2
f 100//41 99//41 98//41
f 98//4 95//4 94//4
f 96//33 98//33 94//33
f 97//6 99//6 101//6
f 103//42 104//42 102//42
f 105//2 108//2 104//2
f 108//43 107//43 106//43
f 106//4 103//4 102//4
f 104//33 106//33 102//33
f 105//6 107//6 109//6
f 111//44 112//44 110//44
f 113//2 116//2 112//2
f 116//45 115//45 114//45
f 114//4 111//4 110//4
f 112//5 114//5 110//5
f 113//6 115//6 117//6
f 119//46 120//46 118//46
f 121//2 124//2 120//2
f 124//47 123//47 122//47
f 122//4 119//4 118//4
f 120//33 122//33 118//33
f 121//6 123//6 125//6
f 127//48 128//48 126//48
f 129//2 132//2 128//2
f 132//49 131//49 130//49
f 130//4 127//4 126//4
f 128//33 130//33 126//33
f 129//6 131//6 133//6
f 134//50 137//50 136//50
f 136//2 141//2 140//2
f 141//51 138//51 140//51
f 139//4 134//4 138//4
f 136//33 138//33 134//33
f 137//6 139//6 141//6
f 143//52 144//52 142//52
f 145//2 148//2 144//2
f 148//53 147//53 146//53
f 146//4 143//4 142//4
f 144//33 146//33 142//33
f 145//6 147//6 149//6
f 150//54 153//54 152//54
f 152//2 157//2 156//2
f 157//55 154//55 156//55
f 155//4 150//4 154//4
f 152//33 154//33 150//33
f 153//6 155//6 157//6
f 158//56 161//56 160//56
f 160//2 165//2 164//2
f 165//57 162//57 164//57
f 163//4 158//4 162//4
f 160//33 162//33 158//33
f 161//6 163//6 165//6
f 166//58 169//58 168//58
f 168//2 173//2 172//2
f 173//59 170//59 172//59
f 171//4 166//4 170//4
f 168//33 170//33 166//33
f 169//6 171//6 173//6
f 174//60 177//60 176//60
f 176//2 181//2 180//2
f 181//61 178//61 180//61
f 179//4 174//4 178//4
f 176//5 178//5 174//5
f 177//6 179//6 181//6
f 182//62 185//62 184//62
f 184//2 189//2 188//2
f 189//63 186//63 188//63
f 187//4 182//4 186//4
f 184//33 186//33 182//33
f 185//6 187//6 189//6
f 190//64 193//64 192//64
f 192//2 197//2 196//2
f 197//65 194//65 196//65
f 195//4 190//4 194//4
f 192//5 194//5 190//5
f 193//6 195//6 197//6
f 198//66 201//66 200//66
f 200//2 205//2 204//2
f 205//67 202//67 204//67
f 203//4 198//4 202//4
f 200//5 202//5 198//5
f 201//6 203//6 205//6
f 206//68 209//68 208//68
f 208//2 213//2 212//2
f 213//69 210//69 212//69
f 211//4 206//4 210//4
f 208//33 210//33 206//33
f 209//6 211//6 213//6
f 214//70 217//70 216//70
f 216//2 221//2 220//2
f 221//71 218//71 220//71
f 219//4 214//4 218//4
f 216//5 218//5 214//5
f 217//6 219//6 221//6
f 2//1 4//1 3//1
f 4//2 8//2 7//2
f 8//3 6//3 5//3
f 6//4 2//4 1//4
f 3//5 7//5 5//5
f 4//6 2//6 6//6
f 10//1 12//1 11//1
f 12//2 16//2 15//2
f 16//3 14//3 13//3
f 14//4 10//4 9//4
f 11//5 15//5 13//5
f 12//6 10//6 14//6
f 17//7 18//7 20//7
f 23//8 27//8 28//8
f 24//8 22//8 21//8
f 22//9 18//9 17//9
f 23//10 21//10 17//10
f 20//11 18//11 22//11
f 27//8 31//8 32//8
f 19//12 26//12 27//12
f 24//13 28//13 25//13
f 19//7 20//7 25//7
f 32//14 36//14 33//14
f 26//15 30//15 31//15
f 28//16 32//16 29//16
f 26//7 25//7 29//7
f 36//72 40//72 37//72
f 30//7 29//7 33//7
f 31//8 35//8 36//8
f 30//18 34//18 35//18
f 40//8 39//8 43//8
f 34//7 33//7 37//7
f 35//8 39//8 40//8
f 34//73 38//73 39//73
f 44//74 48//74 45//74
f 38//21 42//21 43//21
f 40//22 44//22 41//22
f 37//7 41//7 42//7
f 45//7 49//7 50//7
f 41//7 45//7 46//7
f 44//8 43//8 47//8
f 42//75 46//75 47//75
f 52//8 51//8 55//8
f 48//8 47//8 51//8
f 46//24 50//24 51//24
f 48//25 52//25 49//25
f 56//26 60//26 57//26
f 50//27 54//27 55//27
f 52//28 56//28 53//28
f 49//7 53//7 54//7
f 57//29 60//29 59//29
f 53//7 57//7 58//7
f 56//8 55//8 59//8
f 54//30 58//30 59//30
f 62//76 64//76 63//76
f 64//29 68//29 67//29
f 67//77 68//77 66//77
f 65//9 66//9 62//9
f 63//78 67//78 65//78
f 64//6 62//6 66//6
f 70//79 72//79 71//79
f 72//29 76//29 75//29
f 75//80 76//80 74//80
f 73//9 74//9 70//9
f 71//78 75//78 73//78
f 72//6 70//6 74//6
f 79//81 81//81 80//81
f 81//29 85//29 84//29
f 84//82 85//82 83//82
f 82//9 83//9 79//9
f 80//78 84//78 82//78
f 81//6 79//6 83//6
f 87//83 89//83 88//83
f 89//29 93//29 92//29
f 92//84 93//84 91//84
f 90//9 91//9 87//9
f 88//78 92//78 90//78
f 89//6 87//6 91//6
f 95//85 97//85 96//85
f 97//29 101//29 100//29
f 100//86 101//86 99//86
f 98//9 99//9 95//9
f 96//78 100//78 98//78
f 97//6 95//6 99//6
f 103//87 105//87 104//87
f 105//29 109//29 108//29
f 108//88 109//88 107//88
f 106//9 107//9 103//9
f 104//78 108//78 106//78
f 105//6 103//6 107//6
f 111//89 113//89 112//89
f 113//29 117//29 116//29
f 116//90 117//90 115//90
f 114//9 115//9 111//9
f 112//91 116//91 114//91
f 113//6 111//6 115//6
f 119//92 121//92 120//92
f 121//29 125//29 124//29
f 124//93 125//93 123//93
f 122//9 123//9 119//9
f 120//94 124//94 122//94
f 121//6 119//6 123//6
f 127//95 129//95 128//95
f 129//29 133//29 132//29
f 132//96 133//96 131//96
f 130//9 131//9 127//9
f 128//78 132//78 130//78
f 129//6 127//6 131//6
f 134//97 135//97 137//97
f 136//29 137//29 141//29
f 141//98 139//98 138//98
f 139//9 135//9 134//9
f 136//94 140//94 138//94
f 137//6 135//6 139//6
f 143//99 145//99 144//99
f 145//29 149//29 148//29
f 148//100 149//100 147//100
f 146//9 147//9 143//9
f 144//94 148//94 146//94
f 145//6 143//6 147//6
f 150//101 151//101 153//101
f 152//29 153//29 157//29
f 157//102 155//102 154//102
f 155//9 151//9 150//9
f 152//94 156//94 154//94
f 153//6 151//6 155//6
f 158//103 159//103 161//103
f 160//29 161//29 165//29
f 165//104 163//104 162//104
f 163//9 159//9 158//9
f 160//94 164//94 162//94
f 161//6 159//6 163//6
f 166//105 167//105 169//105
f 168//29 169//29 173//29
f 173//106 171//106 170//106
f 171//9 167//9 166//9
f 168//78 172//78 170//78
f 169//6 167//6 171//6
f 174//107 175//107 177//107
f 176//29 177//29 181//29
f 181//108 179//108 178//108
f 179//9 175//9 174//9
f 176//109 180//109 178//109
f 177//6 175//6 179//6
f 182//110 183//110 185//110
f 184//29 185//29 189//29
f 189//111 187//111 186//111
f 187//9 183//9 182//9
f 184//78 188//78 186//78
f 185//6 183//6 187//6
f 190//112 191//112 193//112
f 192//29 193//29 197//29
f 197//113 195//113 194//113
f 195//9 191//9 190//9
f 192//78 196//78 194//78
f 193//6 191//6 195//6
f 198//114 199//114 201//114
f 200//29 201//29 205//29
f 205//115 203//115 202//115
f 203//9 199//9 198//9
f 200//78 204//78 202//78
f 201//6 199//6 203//6
f 206//116 207//116 209//116
f 208//29 209//29 213//29
f 213//117 211//117 210//117
f 211//9 207//9 206//9
f 208//78 212//78 210//78
f 209//6 207//6 211//6
f 214//118 215//118 217//118
f 216//29 217//29 221//29
f 221//119 219//119 218//119
f 219//9 215//9 214//9
f 216//78 220//78 218//78
f 217//6 215//6 219//6
