# Blender v2.78 (sub 0) OBJ File: 'slup1l.blend'
# www.blender.org
mtllib slup11bl.mtl
o Cube.010_Cube.012
v 0.020102 6.299692 0.013708
v 0.020102 7.397691 0.013708
v 0.020102 6.299692 0.062091
v 0.020102 7.397691 0.062091
v -0.036963 6.299692 0.013708
v -0.036963 7.397691 0.013708
v -0.036963 6.299692 0.062091
v -0.036963 7.397691 0.062091
vn 1.0000 -0.0000 -0.0000
vn 0.0000 -0.0000 1.0000
vn -1.0000 0.0000 0.0000
vn -0.0000 0.0000 -1.0000
vn 0.0000 -1.0000 0.0000
vn 0.0000 1.0000 -0.0000
usemtl None
s off
f 2//1 3//1 1//1
f 4//2 7//2 3//2
f 8//3 5//3 7//3
f 6//4 1//4 5//4
f 7//5 1//5 3//5
f 4//6 6//6 8//6
f 2//1 4//1 3//1
f 4//2 8//2 7//2
f 8//3 6//3 5//3
f 6//4 2//4 1//4
f 7//5 5//5 1//5
f 4//6 2//6 6//6
o Cube.009_Cube.011
v -0.044564 6.315655 0.010971
v -0.031284 6.355483 0.010971
v -0.044564 6.315655 0.053187
v -0.031284 6.355483 0.053187
v -2.634347 7.409517 0.010972
v -2.621066 7.449344 0.010972
v -2.634347 7.409517 0.053188
v -2.621066 7.449344 0.053188
vn 0.9486 -0.3163 0.0000
vn 0.0000 0.0000 1.0000
vn -0.9487 0.3163 0.0000
vn -0.0000 0.0000 -1.0000
vn -0.3891 -0.9212 0.0000
vn 0.3891 0.9212 0.0000
vn -0.9486 0.3163 0.0000
usemtl None
s off
f 9//7 12//7 11//7
f 12//8 15//8 11//8
f 16//9 13//9 15//9
f 13//10 10//10 9//10
f 11//11 13//11 9//11
f 12//12 14//12 16//12
f 9//7 10//7 12//7
f 12//8 16//8 15//8
f 16//13 14//13 13//13
f 13//10 14//10 10//10
f 11//11 15//11 13//11
f 12//12 10//12 14//12
o Cube.008_Cube.009
v -0.167803 5.508827 0.056017
v -0.167803 5.551719 0.056017
v -0.167803 5.508827 0.068326
v -0.167803 5.551719 0.068326
v -1.130060 5.550302 0.056017
v -1.130060 5.593193 0.056017
v -1.130060 5.550302 0.068326
v -1.130060 5.593193 0.068326
v -0.167803 5.508827 0.068326
v -0.167803 5.508828 -0.006194
v -0.167803 5.551719 -0.006194
v -0.167803 5.508828 0.006114
v -0.167803 5.551719 0.006114
v -1.130060 5.550302 -0.006194
v -1.130060 5.593194 -0.006194
v -1.130060 5.550302 0.006114
v -1.130060 5.593194 0.006114
v -0.167803 5.508828 0.006114
vn 1.0000 0.0000 0.0000
vn 0.0000 0.0000 1.0000
vn -1.0000 0.0000 0.0000
vn -0.0000 0.0000 -1.0000
vn -0.0431 -0.9991 0.0000
vn 0.0431 0.9991 0.0000
usemtl None
s off
f 18//14 25//14 17//14
f 20//15 23//15 25//15
f 24//16 21//16 23//16
f 21//17 18//17 17//17
f 23//18 17//18 19//18
f 20//19 22//19 24//19
f 27//14 34//14 26//14
f 29//15 32//15 34//15
f 33//16 30//16 32//16
f 30//17 27//17 26//17
f 32//18 26//18 28//18
f 29//19 31//19 33//19
f 18//14 20//14 25//14
f 20//15 24//15 23//15
f 24//16 22//16 21//16
f 21//17 22//17 18//17
f 23//18 21//18 17//18
f 20//19 18//19 22//19
f 27//14 29//14 34//14
f 29//15 33//15 32//15
f 33//16 31//16 30//16
f 30//17 31//17 27//17
f 32//18 30//18 26//18
f 29//19 27//19 31//19
o Cube.007_Cube.008
v 0.013457 6.220725 -0.010811
v 0.013457 6.304975 -0.010811
v 0.013457 6.220725 0.073906
v 0.013457 6.304975 0.073906
v -0.468658 6.220725 -0.010811
v -0.468658 6.304975 -0.010811
v -0.468658 6.220725 0.073906
v -0.468658 6.304975 0.073906
v -0.638937 6.258294 0.073906
v -0.619995 6.176201 0.073906
v -0.619995 6.176201 -0.010811
v -0.638937 6.258294 -0.010811
v -1.403372 5.908547 0.073906
v -1.355510 5.835572 0.073906
v -1.355510 5.835572 -0.010810
v -1.403372 5.908547 -0.010810
v -1.473602 5.665851 0.073906
v -1.392112 5.702771 0.073906
v -1.392112 5.702771 -0.010810
v -1.473602 5.665851 -0.010810
v -1.393121 5.597820 0.073906
v -1.359267 5.674969 0.073906
v -1.359267 5.674969 -0.010810
v -1.393121 5.597820 -0.010810
v -1.120817 5.529140 0.073906
v -1.115568 5.613225 0.073906
v -1.115568 5.613225 -0.010810
v -1.120817 5.529140 -0.010810
vn 1.0000 0.0000 -0.0000
vn 0.0000 0.0000 1.0000
vn -0.0000 0.0000 -1.0000
vn 0.0000 -1.0000 -0.0000
vn 0.0000 1.0000 0.0000
vn -0.4160 0.9093 0.0000
vn 0.2822 -0.9593 0.0000
vn -0.2644 0.9644 0.0000
vn -0.9606 0.2780 0.0000
vn 0.4202 -0.9074 0.0000
vn 0.9641 -0.2657 0.0000
vn -0.2446 -0.9696 0.0000
vn 0.6461 0.7633 0.0000
vn -0.6456 -0.7637 0.0000
vn 0.9981 -0.0623 0.0000
vn 0.2456 0.9694 0.0000
usemtl None
s off
f 36//20 37//20 35//20
f 38//21 41//21 37//21
f 39//22 46//22 40//22
f 40//22 35//22 39//22
f 41//23 35//23 37//23
f 38//24 40//24 42//24
f 43//25 50//25 47//25
f 41//26 45//26 39//26
f 40//27 43//27 42//27
f 41//21 43//21 44//21
f 50//28 51//28 47//28
f 44//21 47//21 48//21
f 45//22 50//22 46//22
f 45//29 48//29 49//29
f 53//22 58//22 54//22
f 48//21 51//21 52//21
f 49//22 54//22 50//22
f 48//30 53//30 49//30
f 58//31 59//31 55//31
f 52//32 57//32 53//32
f 54//33 55//33 51//33
f 52//21 55//21 56//21
f 59//34 61//34 60//34
f 55//21 60//21 56//21
f 58//22 61//22 62//22
f 57//35 60//35 61//35
f 36//20 38//20 37//20
f 38//21 42//21 41//21
f 39//22 45//22 46//22
f 40//22 36//22 35//22
f 41//23 39//23 35//23
f 38//24 36//24 40//24
f 43//25 46//25 50//25
f 41//26 44//26 45//26
f 40//27 46//27 43//27
f 41//21 42//21 43//21
f 50//28 54//28 51//28
f 44//21 43//21 47//21
f 45//22 49//22 50//22
f 45//29 44//29 48//29
f 53//22 57//22 58//22
f 48//21 47//21 51//21
f 49//22 53//22 54//22
f 48//30 52//30 53//30
f 58//31 62//31 59//31
f 52//32 56//32 57//32
f 54//33 58//33 55//33
f 52//21 51//21 55//21
f 59//34 62//34 61//34
f 55//21 59//21 60//21
f 58//22 57//22 61//22
f 57//35 56//35 60//35
o Cube.006_Cube.007
v -2.599885 6.289918 -0.061298
v -2.599885 8.503652 -0.061298
v -2.599885 6.289918 0.140450
v -2.599885 8.503652 0.140450
v -2.689497 6.289918 -0.061298
v -2.689497 8.503652 -0.061298
v -2.689497 6.289918 0.140450
v -2.689497 8.503652 0.140450
vn 1.0000 0.0000 0.0000
vn 0.0000 0.0000 1.0000
vn -1.0000 0.0000 0.0000
vn -0.0000 0.0000 -1.0000
vn 0.0000 -1.0000 0.0000
vn 0.0000 1.0000 0.0000
usemtl None
s off
f 64//36 65//36 63//36
f 66//37 69//37 65//37
f 70//38 67//38 69//38
f 68//39 63//39 67//39
f 69//40 63//40 65//40
f 66//41 68//41 70//41
f 64//36 66//36 65//36
f 66//37 70//37 69//37
f 70//38 68//38 67//38
f 68//39 64//39 63//39
f 69//40 67//40 63//40
f 66//41 64//41 68//41
o Cube.004_Cube.005
v 1.579949 6.299692 -0.020692
v 1.579949 6.399124 -0.020692
v 1.579949 6.299692 0.079291
v 1.579949 6.399124 0.079291
v -2.682660 6.299692 -0.020692
v -2.682660 6.399124 -0.020692
v -2.682660 6.299692 0.079292
v -2.682660 6.399124 0.079292
vn 1.0000 0.0000 0.0000
vn 0.0000 0.0000 1.0000
vn -1.0000 0.0000 0.0000
vn -0.0000 0.0000 -1.0000
vn 0.0000 -1.0000 0.0000
vn 0.0000 1.0000 0.0000
usemtl None
s off
f 72//42 73//42 71//42
f 74//43 77//43 73//43
f 78//44 75//44 77//44
f 76//45 71//45 75//45
f 77//46 71//46 73//46
f 74//47 76//47 78//47
f 72//42 74//42 73//42
f 74//43 78//43 77//43
f 78//44 76//44 75//44
f 76//45 72//45 71//45
f 77//46 75//46 71//46
f 74//47 72//47 76//47
