# Blender v2.78 (sub 0) OBJ File: 'siecprosta.blend'
# www.blender.org
mtllib 1simplesiec.mtl
o Cube.002_Cube.004
v -0.039976 5.499949 0.000265
v -0.039976 5.520058 0.000265
v -0.039976 5.499949 -1.000337
v -0.039976 5.520058 -1.000337
v -0.020484 5.499949 0.000265
v -0.020484 5.520058 0.000265
v -0.020484 5.499949 -1.000337
v -0.020484 5.520058 -1.000337
v 0.020875 5.499949 0.000265
v 0.020875 5.520058 0.000265
v 0.020875 5.499949 -1.000337
v 0.020875 5.520058 -1.000337
v 0.040366 5.499949 0.000265
v 0.040366 5.520058 0.000265
v 0.040366 5.499949 -1.000337
v 0.040366 5.520058 -1.000337
v -0.009636 7.500343 0.000265
v -0.009636 7.520452 0.000265
v -0.009636 7.060588 -0.099979
v -0.009636 7.080697 -0.099979
v 0.009856 7.500343 0.000265
v 0.009856 7.520452 0.000265
v 0.009856 7.060588 -0.099979
v 0.009856 7.080697 -0.099979
v -0.009636 6.838832 -0.200092
v -0.009636 6.818723 -0.200092
v 0.009856 6.818723 -0.200092
v 0.009856 6.838832 -0.200092
v -0.009636 6.560320 -0.300928
v -0.009636 6.540211 -0.300928
v 0.009856 6.540211 -0.300928
v 0.009856 6.560320 -0.300928
v -0.009636 6.400455 -0.401000
v -0.009636 6.380345 -0.401000
v 0.009856 6.380345 -0.401000
v 0.009856 6.400455 -0.401000
v -0.009636 6.357383 -0.501072
v -0.009636 6.337274 -0.501072
v 0.009856 6.337274 -0.501072
v 0.009856 6.357383 -0.501072
v -0.009636 6.400455 -0.601908
v -0.009636 6.380345 -0.601908
v 0.009856 6.380345 -0.601908
v 0.009856 6.400455 -0.601908
v -0.009636 6.560320 -0.701216
v -0.009636 6.540211 -0.701216
v 0.009856 6.540211 -0.701216
v 0.009856 6.560320 -0.701216
v -0.009636 6.838832 -0.802052
v -0.009636 6.818723 -0.802052
v 0.009856 6.818723 -0.802052
v 0.009856 6.838832 -0.802052
v -0.009636 7.080697 -0.903651
v -0.009636 7.060588 -0.903651
v 0.009856 7.060588 -0.903651
v 0.009856 7.080697 -0.903651
v -0.009636 7.520452 -1.000345
v -0.009636 7.500343 -1.000345
v 0.009856 7.500343 -1.000345
v 0.009856 7.520452 -1.000345
v -0.039976 5.503878 -0.000271
v -0.008996 7.507670 -0.000271
v -0.039976 5.503878 -0.000688
v -0.008996 7.507670 -0.000688
v -0.020484 5.503878 -0.000271
v 0.010496 7.507670 -0.000271
v -0.020484 5.503878 -0.000688
v 0.010496 7.507670 -0.000688
v 0.020875 5.503878 -0.011189
v -0.009368 7.456530 -0.011189
v 0.020875 5.503878 -0.011606
v -0.009368 7.456530 -0.011606
v 0.040366 5.503878 -0.011189
v 0.010124 7.456530 -0.011189
v 0.040366 5.503878 -0.011606
v 0.010124 7.456530 -0.011606
v -0.009636 5.198148 -0.099979
v -0.039976 5.503878 -0.099756
v -0.008996 7.070137 -0.099756
v -0.039976 5.503878 -0.100173
v -0.008996 7.070137 -0.100173
v -0.020484 5.503878 -0.099756
v 0.010496 7.070137 -0.099756
v -0.020484 5.503878 -0.100173
v 0.010496 7.070137 -0.100173
v 0.020875 5.503878 -0.110674
v -0.009368 7.041726 -0.110674
v 0.020875 5.503878 -0.111091
v -0.009368 7.041726 -0.111091
v 0.040366 5.503878 -0.110674
v 0.010124 7.041726 -0.110674
v 0.040366 5.503878 -0.111091
v 0.010124 7.041726 -0.111091
v -0.039976 5.503878 -0.200260
v -0.008996 6.830165 -0.200260
v -0.039976 5.503878 -0.200677
v -0.008996 6.830165 -0.200677
v -0.020484 5.503878 -0.200260
v 0.010496 6.830165 -0.200260
v -0.020484 5.503878 -0.200677
v 0.010496 6.830165 -0.200677
v 0.020875 5.503878 -0.211178
v -0.009368 6.800708 -0.211178
v 0.020875 5.503878 -0.211595
v -0.009368 6.800708 -0.211595
v 0.040366 5.503878 -0.211178
v 0.010124 6.800708 -0.211178
v 0.040366 5.503878 -0.211595
v 0.010124 6.800708 -0.211595
v -0.039976 5.503878 -0.300424
v -0.008996 6.553053 -0.300424
v -0.039976 5.503878 -0.300841
v -0.008996 6.553053 -0.300841
v -0.020484 5.503878 -0.300424
v 0.010496 6.553053 -0.300424
v -0.020484 5.503878 -0.300841
v 0.010496 6.553053 -0.300841
v 0.020875 5.503878 -0.311342
v -0.009368 6.532597 -0.311342
v 0.020875 5.503878 -0.311759
v -0.009368 6.532597 -0.311759
v 0.040366 5.503878 -0.311342
v 0.010124 6.532597 -0.311342
v 0.040366 5.503878 -0.311759
v 0.010124 6.532597 -0.311759
v -0.039976 5.503878 -0.400248
v -0.008996 6.394859 -0.400248
v -0.039976 5.503878 -0.400666
v -0.008996 6.394859 -0.400666
v -0.020484 5.503878 -0.400248
v 0.010496 6.394859 -0.400248
v -0.020484 5.503878 -0.400666
v 0.010496 6.394859 -0.400666
v 0.020875 5.503878 -0.411167
v -0.009368 6.386677 -0.411167
v 0.020875 5.503878 -0.411584
v -0.009368 6.386677 -0.411584
v 0.040366 5.503878 -0.411167
v 0.010124 6.386677 -0.411167
v 0.040366 5.503878 -0.411584
v 0.010124 6.386677 -0.411584
v -0.039976 5.503878 -0.500413
v -0.008996 6.353948 -0.500413
v -0.039976 5.503878 -0.500830
v -0.008996 6.353948 -0.500830
v -0.020484 5.503878 -0.500413
v 0.010496 6.353948 -0.500413
v -0.020484 5.503878 -0.500830
v 0.010496 6.353948 -0.500830
v 0.020875 5.503878 -0.511331
v -0.009368 6.353948 -0.511331
v 0.020875 5.503878 -0.511748
v -0.009368 6.353948 -0.511748
v 0.040366 5.503878 -0.511331
v 0.010124 6.353948 -0.511331
v 0.040366 5.503878 -0.511748
v 0.010124 6.353948 -0.511748
v -0.039976 5.503878 -0.600237
v -0.008996 6.388313 -0.600237
v -0.039976 5.503878 -0.600654
v -0.008996 6.388313 -0.600654
v -0.020484 5.503878 -0.600237
v 0.010496 6.388313 -0.600237
v -0.020484 5.503878 -0.600654
v 0.010496 6.388313 -0.600654
v 0.020875 5.503878 -0.611155
v -0.009368 6.407951 -0.611155
v 0.020875 5.503878 -0.611573
v -0.009368 6.407951 -0.611573
v 0.040366 5.503878 -0.611155
v 0.010124 6.407951 -0.611155
v 0.040366 5.503878 -0.611573
v 0.010124 6.407951 -0.611573
v -0.039976 5.503878 -0.700062
v -0.008996 6.545416 -0.700062
v -0.039976 5.503878 -0.700479
v -0.008996 6.545416 -0.700479
v -0.020484 5.503878 -0.700062
v 0.010496 6.545416 -0.700062
v -0.020484 5.503878 -0.700479
v 0.010496 6.545416 -0.700479
v 0.020875 5.503878 -0.710980
v -0.009368 6.584692 -0.710980
v 0.020875 5.503878 -0.711397
v -0.009368 6.584692 -0.711397
v 0.040366 5.503878 -0.710980
v 0.010124 6.584692 -0.710980
v 0.040366 5.503878 -0.711397
v 0.010124 6.584692 -0.711397
v -0.039976 5.503878 -0.799886
v -0.008996 6.830165 -0.799886
v -0.039976 5.503878 -0.800304
v -0.008996 6.830165 -0.800304
v -0.020484 5.503878 -0.799886
v 0.010496 6.830165 -0.799886
v -0.020484 5.503878 -0.800304
v 0.010496 6.830165 -0.800304
v 0.020875 5.503878 -0.810805
v -0.009368 6.849803 -0.810805
v 0.020875 5.503878 -0.811222
v -0.009368 6.849803 -0.811222
v 0.040366 5.503878 -0.810805
v 0.010124 6.849803 -0.810805
v 0.040366 5.503878 -0.811222
v 0.010124 6.849803 -0.811222
v -0.039976 5.503878 -0.901409
v -0.008996 7.065819 -0.901409
v -0.039976 5.503878 -0.901826
v -0.008996 7.065819 -0.901826
v -0.020484 5.503878 -0.901409
v 0.010496 7.065819 -0.901409
v -0.020484 5.503878 -0.901826
v 0.010496 7.065819 -0.901826
v 0.020875 5.503878 -0.912327
v -0.009368 7.114913 -0.912327
v 0.020875 5.503878 -0.912744
v -0.009368 7.114913 -0.912744
v 0.040366 5.503878 -0.912327
v 0.010124 7.114913 -0.912327
v 0.040366 5.503878 -0.912744
v 0.010124 7.114913 -0.912744
vn -1.0000 0.0000 0.0000
vn 0.0000 0.0000 -1.0000
vn 1.0000 0.0000 0.0000
vn 0.0000 0.0000 1.0000
vn 0.0000 -1.0000 0.0000
vn 0.0000 1.0000 0.0000
vn 0.0000 -0.2223 0.9750
vn 0.0000 0.2223 -0.9750
vn 0.0000 -0.3825 0.9240
vn 0.0000 0.3825 -0.9240
vn 0.0000 0.5306 -0.8476
vn 0.0000 -0.3404 0.9403
vn 0.0000 0.3404 -0.9403
vn 0.0000 0.9185 -0.3953
vn 0.0000 -0.5306 0.8476
vn 0.0000 -0.9185 0.3953
vn 0.0000 0.5277 0.8494
vn 0.0000 -0.9196 -0.3928
vn 0.0000 0.9196 0.3928
vn 0.0000 -0.5277 -0.8494
vn 0.0000 -0.3404 -0.9403
vn 0.0000 0.3404 0.9403
vn 0.0000 0.2148 0.9767
vn 0.0000 -0.3873 -0.9220
vn 0.0000 0.3873 0.9220
vn 0.0000 -0.2148 -0.9767
vn -0.9999 0.0155 0.0000
vn 0.9999 -0.0155 0.0000
vn -0.9999 -0.0155 0.0000
vn 0.9999 0.0155 0.0000
vn -0.9998 0.0198 0.0000
vn 0.9998 -0.0198 0.0000
vn -0.9998 -0.0197 0.0000
vn 0.9998 0.0197 0.0000
vn -0.9997 0.0234 0.0000
vn 0.9997 -0.0234 0.0000
vn -0.9997 -0.0233 0.0000
vn 0.9997 0.0233 0.0000
vn -0.9996 0.0295 0.0000
vn 0.9996 -0.0295 0.0000
vn -0.9996 -0.0294 0.0000
vn 0.9996 0.0294 0.0000
vn -0.9994 0.0347 0.0000
vn 0.9994 -0.0347 0.0000
vn -0.9994 -0.0342 0.0000
vn 0.9994 0.0342 0.0000
vn -0.9993 0.0364 0.0000
vn 0.9993 -0.0364 0.0000
vn -0.9994 -0.0356 0.0000
vn 0.9994 0.0356 0.0000
vn -0.9994 0.0350 0.0000
vn 0.9994 -0.0350 0.0000
vn -0.9994 -0.0334 0.0000
vn 0.9994 0.0334 0.0000
vn -0.9996 0.0297 0.0000
vn 0.9996 -0.0297 0.0000
vn -0.9996 -0.0280 0.0000
vn 0.9996 0.0280 0.0000
vn 0.9997 -0.0233 0.0000
vn -0.9997 -0.0225 0.0000
vn 0.9997 0.0225 0.0000
vn -0.9998 -0.0188 0.0000
vn 0.9998 0.0188 0.0000
vn 0.0000 0.2147 0.9767
vn -0.9997 0.0233 0.0000
usemtl None
s off
f 2//1 3//1 1//1
f 4//2 7//2 3//2
f 8//3 5//3 7//3
f 6//4 1//4 5//4
f 7//5 1//5 3//5
f 4//6 6//6 8//6
f 10//1 11//1 9//1
f 12//2 15//2 11//2
f 16//3 13//3 15//3
f 14//4 9//4 13//4
f 15//5 9//5 11//5
f 12//6 14//6 16//6
f 17//1 20//1 19//1
f 23//3 28//3 24//3
f 24//3 21//3 23//3
f 22//4 17//4 21//4
f 23//7 17//7 19//7
f 20//8 22//8 24//8
f 27//3 32//3 28//3
f 19//9 27//9 23//9
f 24//10 25//10 20//10
f 19//1 25//1 26//1
f 32//11 33//11 29//11
f 26//12 31//12 27//12
f 28//13 29//13 25//13
f 26//1 29//1 30//1
f 36//14 37//14 33//14
f 30//1 33//1 34//1
f 31//3 36//3 32//3
f 30//15 35//15 31//15
f 40//3 43//3 44//3
f 34//1 37//1 38//1
f 35//3 40//3 36//3
f 34//16 39//16 35//16
f 44//17 45//17 41//17
f 38//18 43//18 39//18
f 40//19 41//19 37//19
f 37//1 42//1 38//1
f 45//1 50//1 46//1
f 41//1 46//1 42//1
f 44//3 47//3 48//3
f 42//20 47//20 43//20
f 52//3 55//3 56//3
f 48//3 51//3 52//3
f 46//21 51//21 47//21
f 48//22 49//22 45//22
f 56//23 57//23 53//23
f 50//24 55//24 51//24
f 52//25 53//25 49//25
f 49//1 54//1 50//1
f 57//2 59//2 58//2
f 53//1 58//1 54//1
f 56//3 59//3 60//3
f 54//26 59//26 55//26
f 62//27 63//27 61//27
f 64//2 67//2 63//2
f 68//28 65//28 67//28
f 65//4 62//4 61//4
f 67//5 61//5 63//5
f 64//6 66//6 68//6
f 70//29 71//29 69//29
f 71//2 76//2 75//2
f 76//30 73//30 75//30
f 74//4 69//4 73//4
f 75//5 69//5 71//5
f 72//6 74//6 76//6
f 79//31 80//31 78//31
f 81//2 84//2 80//2
f 85//32 82//32 84//32
f 82//4 79//4 78//4
f 84//5 78//5 80//5
f 81//6 83//6 85//6
f 87//33 88//33 86//33
f 88//2 93//2 92//2
f 93//34 90//34 92//34
f 91//4 86//4 90//4
f 92//5 86//5 88//5
f 89//6 91//6 93//6
f 95//35 96//35 94//35
f 97//2 100//2 96//2
f 101//36 98//36 100//36
f 98//4 95//4 94//4
f 100//5 94//5 96//5
f 97//6 99//6 101//6
f 103//37 104//37 102//37
f 104//2 109//2 108//2
f 109//38 106//38 108//38
f 107//4 102//4 106//4
f 108//5 102//5 104//5
f 105//6 107//6 109//6
f 111//39 112//39 110//39
f 113//2 116//2 112//2
f 117//40 114//40 116//40
f 114//4 111//4 110//4
f 116//5 110//5 112//5
f 113//6 115//6 117//6
f 119//41 120//41 118//41
f 120//2 125//2 124//2
f 125//42 122//42 124//42
f 123//4 118//4 122//4
f 124//5 118//5 120//5
f 121//6 123//6 125//6
f 127//43 128//43 126//43
f 129//2 132//2 128//2
f 133//44 130//44 132//44
f 130//4 127//4 126//4
f 132//5 126//5 128//5
f 129//6 131//6 133//6
f 135//45 136//45 134//45
f 136//2 141//2 140//2
f 141//46 138//46 140//46
f 139//4 134//4 138//4
f 140//5 134//5 136//5
f 137//6 139//6 141//6
f 143//47 144//47 142//47
f 145//2 148//2 144//2
f 149//48 146//48 148//48
f 146//4 143//4 142//4
f 148//5 142//5 144//5
f 145//6 147//6 149//6
f 151//49 152//49 150//49
f 152//2 157//2 156//2
f 157//50 154//50 156//50
f 155//4 150//4 154//4
f 156//5 150//5 152//5
f 153//6 155//6 157//6
f 159//51 160//51 158//51
f 161//2 164//2 160//2
f 165//52 162//52 164//52
f 162//4 159//4 158//4
f 164//5 158//5 160//5
f 161//6 163//6 165//6
f 167//53 168//53 166//53
f 168//2 173//2 172//2
f 173//54 170//54 172//54
f 171//4 166//4 170//4
f 172//5 166//5 168//5
f 169//6 171//6 173//6
f 175//55 176//55 174//55
f 177//2 180//2 176//2
f 181//56 178//56 180//56
f 178//4 175//4 174//4
f 180//5 174//5 176//5
f 177//6 179//6 181//6
f 183//57 184//57 182//57
f 184//2 189//2 188//2
f 189//58 186//58 188//58
f 187//4 182//4 186//4
f 188//5 182//5 184//5
f 185//6 187//6 189//6
f 191//35 192//35 190//35
f 193//2 196//2 192//2
f 197//59 194//59 196//59
f 194//4 191//4 190//4
f 196//5 190//5 192//5
f 193//6 195//6 197//6
f 199//60 200//60 198//60
f 200//2 205//2 204//2
f 205//61 202//61 204//61
f 203//4 198//4 202//4
f 204//5 198//5 200//5
f 201//6 203//6 205//6
f 207//31 208//31 206//31
f 209//2 212//2 208//2
f 213//32 210//32 212//32
f 210//4 207//4 206//4
f 212//5 206//5 208//5
f 209//6 211//6 213//6
f 215//62 216//62 214//62
f 216//2 221//2 220//2
f 221//63 218//63 220//63
f 219//4 214//4 218//4
f 220//5 214//5 216//5
f 217//6 219//6 221//6
f 2//1 4//1 3//1
f 4//2 8//2 7//2
f 8//3 6//3 5//3
f 6//4 2//4 1//4
f 7//5 5//5 1//5
f 4//6 2//6 6//6
f 10//1 12//1 11//1
f 12//2 16//2 15//2
f 16//3 14//3 13//3
f 14//4 10//4 9//4
f 15//5 13//5 9//5
f 12//6 10//6 14//6
f 17//1 18//1 20//1
f 23//3 27//3 28//3
f 24//3 22//3 21//3
f 22//4 18//4 17//4
f 23//7 21//7 17//7
f 20//8 18//8 22//8
f 27//3 31//3 32//3
f 19//9 26//9 27//9
f 24//10 28//10 25//10
f 19//1 20//1 25//1
f 32//11 36//11 33//11
f 26//12 30//12 31//12
f 28//13 32//13 29//13
f 26//1 25//1 29//1
f 36//14 40//14 37//14
f 30//1 29//1 33//1
f 31//3 35//3 36//3
f 30//15 34//15 35//15
f 40//3 39//3 43//3
f 34//1 33//1 37//1
f 35//3 39//3 40//3
f 34//16 38//16 39//16
f 44//17 48//17 45//17
f 38//18 42//18 43//18
f 40//19 44//19 41//19
f 37//1 41//1 42//1
f 45//1 49//1 50//1
f 41//1 45//1 46//1
f 44//3 43//3 47//3
f 42//20 46//20 47//20
f 52//3 51//3 55//3
f 48//3 47//3 51//3
f 46//21 50//21 51//21
f 48//22 52//22 49//22
f 56//64 60//64 57//64
f 50//24 54//24 55//24
f 52//25 56//25 53//25
f 49//1 53//1 54//1
f 57//2 60//2 59//2
f 53//1 57//1 58//1
f 56//3 55//3 59//3
f 54//26 58//26 59//26
f 62//27 64//27 63//27
f 64//2 68//2 67//2
f 68//28 66//28 65//28
f 65//4 66//4 62//4
f 67//5 65//5 61//5
f 64//6 62//6 66//6
f 70//29 72//29 71//29
f 71//2 72//2 76//2
f 76//30 74//30 73//30
f 74//4 70//4 69//4
f 75//5 73//5 69//5
f 72//6 70//6 74//6
f 79//31 81//31 80//31
f 81//2 85//2 84//2
f 85//32 83//32 82//32
f 82//4 83//4 79//4
f 84//5 82//5 78//5
f 81//6 79//6 83//6
f 87//33 89//33 88//33
f 88//2 89//2 93//2
f 93//34 91//34 90//34
f 91//4 87//4 86//4
f 92//5 90//5 86//5
f 89//6 87//6 91//6
f 95//35 97//35 96//35
f 97//2 101//2 100//2
f 101//36 99//36 98//36
f 98//4 99//4 95//4
f 100//5 98//5 94//5
f 97//6 95//6 99//6
f 103//37 105//37 104//37
f 104//2 105//2 109//2
f 109//38 107//38 106//38
f 107//4 103//4 102//4
f 108//5 106//5 102//5
f 105//6 103//6 107//6
f 111//39 113//39 112//39
f 113//2 117//2 116//2
f 117//40 115//40 114//40
f 114//4 115//4 111//4
f 116//5 114//5 110//5
f 113//6 111//6 115//6
f 119//41 121//41 120//41
f 120//2 121//2 125//2
f 125//42 123//42 122//42
f 123//4 119//4 118//4
f 124//5 122//5 118//5
f 121//6 119//6 123//6
f 127//43 129//43 128//43
f 129//2 133//2 132//2
f 133//44 131//44 130//44
f 130//4 131//4 127//4
f 132//5 130//5 126//5
f 129//6 127//6 131//6
f 135//45 137//45 136//45
f 136//2 137//2 141//2
f 141//46 139//46 138//46
f 139//4 135//4 134//4
f 140//5 138//5 134//5
f 137//6 135//6 139//6
f 143//47 145//47 144//47
f 145//2 149//2 148//2
f 149//48 147//48 146//48
f 146//4 147//4 143//4
f 148//5 146//5 142//5
f 145//6 143//6 147//6
f 151//49 153//49 152//49
f 152//2 153//2 157//2
f 157//50 155//50 154//50
f 155//4 151//4 150//4
f 156//5 154//5 150//5
f 153//6 151//6 155//6
f 159//51 161//51 160//51
f 161//2 165//2 164//2
f 165//52 163//52 162//52
f 162//4 163//4 159//4
f 164//5 162//5 158//5
f 161//6 159//6 163//6
f 167//53 169//53 168//53
f 168//2 169//2 173//2
f 173//54 171//54 170//54
f 171//4 167//4 166//4
f 172//5 170//5 166//5
f 169//6 167//6 171//6
f 175//55 177//55 176//55
f 177//2 181//2 180//2
f 181//56 179//56 178//56
f 178//4 179//4 175//4
f 180//5 178//5 174//5
f 177//6 175//6 179//6
f 183//57 185//57 184//57
f 184//2 185//2 189//2
f 189//58 187//58 186//58
f 187//4 183//4 182//4
f 188//5 186//5 182//5
f 185//6 183//6 187//6
f 191//65 193//65 192//65
f 193//2 197//2 196//2
f 197//36 195//36 194//36
f 194//4 195//4 191//4
f 196//5 194//5 190//5
f 193//6 191//6 195//6
f 199//60 201//60 200//60
f 200//2 201//2 205//2
f 205//61 203//61 202//61
f 203//4 199//4 198//4
f 204//5 202//5 198//5
f 201//6 199//6 203//6
f 207//31 209//31 208//31
f 209//2 213//2 212//2
f 213//32 211//32 210//32
f 210//4 211//4 207//4
f 212//5 210//5 206//5
f 209//6 207//6 211//6
f 215//62 217//62 216//62
f 216//2 217//2 221//2
f 221//63 219//63 218//63
f 219//4 215//4 214//4
f 220//5 218//5 214//5
f 217//6 215//6 219//6
