# Blender v2.78 (sub 0) OBJ File: 'inbk3.blend'
# www.blender.org
mtllib inbk3.mtl
o Cube
v -0.266283 -0.058654 -0.097728
v -0.266283 -0.058654 0.091075
v -0.416258 -0.011452 0.076671
v -0.416258 -0.011452 -0.083324
v -1.001097 0.014935 -0.074133
v -1.001097 0.014935 0.067479
v -1.233275 -0.058654 0.090330
v -1.233275 -0.058654 -0.096983
v 0.272090 -0.058654 -0.097728
v 0.272090 -0.058654 0.091075
v 0.420142 -0.011452 -0.083324
v 0.420142 -0.011452 0.076671
v 1.006584 0.014935 -0.074133
v 1.006584 0.014935 0.067479
v 1.239140 -0.058654 -0.098197
v 1.239140 -0.058654 0.091544
v -1.244247 -0.181002 0.124887
v -1.244247 -0.181002 -0.131541
v 1.250112 -0.181002 -0.133202
v 1.250112 -0.181002 0.126549
vt 0.9838 0.4046
vt 0.9248 0.3476
vt 0.9812 0.3477
vt 0.9852 0.9446
vt 0.9274 0.8565
vt 0.9773 0.8566
vt 0.9283 0.1407
vt 0.9782 0.1407
vt 0.9808 0.6502
vt 0.9225 0.5942
vt 0.9836 0.5942
vt 0.9244 0.6502
vt 0.9227 0.4045
vt 0.9199 0.0526
vt 0.9868 0.0527
vt 0.9245 0.0338
vt 0.9785 0.1130
vt 0.9245 0.1007
vt 0.9811 0.2028
vt 0.9270 0.1246
vt 0.9811 0.1368
vt 0.9307 0.0322
vt 0.9598 0.3838
vt 0.9603 0.6026
vt 0.9543 0.6277
vt 0.9309 0.9765
vt 0.9551 0.4184
vt 0.9192 0.9445
vt 0.9785 0.0215
vt 0.9270 0.2150
vt 0.9696 0.6543
vt 0.9312 0.9602
vt 0.9825 0.8719
vt 0.9472 0.9583
vt 0.9467 0.0384
vt 0.9821 0.1249
vt 0.9661 0.3209
vt 0.9658 0.6815
vt 0.9810 0.8902
vt 0.9465 0.9747
vt 0.9306 0.0706
vt 0.9463 0.0767
vt 0.9807 0.1610
vt 0.9614 0.3566
vn -0.3038 0.9527 -0.0000
vn -0.3021 0.9533 -0.0000
vn -0.0449 0.9990 -0.0000
vn 0.3002 0.9539 0.0000
vn 0.0451 0.9990 0.0000
vn 0.0000 1.0000 -0.0000
vn 0.3017 0.9534 0.0000
vn 0.9960 0.0893 0.0000
vn -0.9960 0.0893 -0.0000
vn 0.0000 0.2785 0.9604
vn 0.0000 0.2785 -0.9604
vn -0.3038 0.9528 -0.0000
vn -0.0025 0.2847 0.9586
vn 0.0088 0.2711 0.9625
vn -0.0006 0.2711 0.9625
vn -0.0128 0.2740 0.9616
vn 0.0019 0.2908 0.9568
vn -0.0023 0.2838 0.9589
vn 0.0013 0.2881 0.9576
vn 0.0013 0.2881 -0.9576
vn -0.0128 0.2740 -0.9616
vn -0.0006 0.2711 -0.9625
vn 0.0088 0.2711 -0.9625
vn -0.0023 0.2838 -0.9589
vn 0.0019 0.2908 -0.9568
vn -0.0025 0.2847 -0.9586
usemtl Material
s off
f 9/1/1 12/2/1 11/3/1
f 8/4/2 6/5/2 5/6/2
f 11/3/3 14/7/3 13/8/3
f 4/9/4 2/10/4 1/11/4
f 5/6/5 3/12/5 4/9/5
f 1/11/6 10/13/6 9/1/6
f 13/8/7 16/14/7 15/15/7
f 16/16/8 19/17/8 15/18/8
f 8/19/9 17/20/9 7/21/9
f 20/22/10 10/23/10 2/24/10
f 9/25/11 19/26/11 1/27/11
f 9/1/12 10/13/12 12/2/12
f 8/4/2 7/28/2 6/5/2
f 11/3/3 12/2/3 14/7/3
f 4/9/4 3/12/4 2/10/4
f 5/6/5 6/5/5 3/12/5
f 1/11/6 2/10/6 10/13/6
f 13/8/7 14/7/7 16/14/7
f 16/16/8 20/29/8 19/17/8
f 8/19/9 18/30/9 17/20/9
f 2/24/13 3/31/13 17/32/13
f 6/33/14 7/34/14 17/32/14
f 17/32/15 20/22/15 2/24/15
f 16/35/16 14/36/16 20/22/16
f 14/36/17 12/37/17 20/22/17
f 3/31/18 6/33/18 17/32/18
f 12/37/19 10/23/19 20/22/19
f 9/25/20 11/38/20 19/26/20
f 13/39/21 15/40/21 19/26/21
f 19/26/22 18/41/22 1/27/22
f 8/42/23 5/43/23 18/41/23
f 5/43/24 4/44/24 18/41/24
f 11/38/25 13/39/25 19/26/25
f 18/41/26 4/44/26 1/27/26
