# Blender v2.78 (sub 0) OBJ File: 'slup1l.blend'
# www.blender.org
mtllib slup00r.mtl
o Cube.012_Cube.014
v -0.017501 6.220725 0.073061
v -0.017501 6.304975 0.073061
v -0.017501 6.220725 -0.011656
v -0.017501 6.304975 -0.011656
v 0.464614 6.220725 0.073061
v 0.464614 6.304975 0.073061
v 0.464614 6.220725 -0.011656
v 0.464614 6.304975 -0.011656
v 0.634893 6.258294 -0.011656
v 0.615952 6.176201 -0.011656
v 0.615952 6.176201 0.073061
v 0.634893 6.258294 0.073061
v 1.399329 5.908547 -0.011656
v 1.351467 5.835572 -0.011656
v 1.351467 5.835572 0.073060
v 1.399329 5.908547 0.073060
v 1.469558 5.665851 -0.011656
v 1.388068 5.702771 -0.011656
v 1.388068 5.702771 0.073060
v 1.469558 5.665851 0.073060
v 1.389077 5.597820 -0.011656
v 1.355223 5.674969 -0.011656
v 1.355223 5.674969 0.073060
v 1.389077 5.597820 0.073060
v 1.116773 5.529140 -0.011656
v 1.111524 5.613225 -0.011656
v 1.111524 5.613225 0.073060
v 1.116773 5.529140 0.073060
vn -1.0000 0.0000 0.0000
vn -0.0000 0.0000 -1.0000
vn 0.0000 0.0000 1.0000
vn 0.0000 -1.0000 -0.0000
vn 0.0000 1.0000 0.0000
vn 0.4160 0.9093 0.0000
vn -0.2822 -0.9593 0.0000
vn 0.2644 0.9644 0.0000
vn 0.9606 0.2780 0.0000
vn -0.4202 -0.9074 0.0000
vn -0.9641 -0.2657 0.0000
vn 0.2446 -0.9696 0.0000
vn -0.6461 0.7633 0.0000
vn 0.6456 -0.7637 0.0000
vn -0.9981 -0.0623 0.0000
vn -0.2456 0.9694 0.0000
usemtl None
s off
f 2//1 3//1 1//1
f 4//2 7//2 3//2
f 5//3 12//3 6//3
f 6//3 1//3 5//3
f 7//4 1//4 3//4
f 4//5 6//5 8//5
f 12//6 13//6 9//6
f 7//7 11//7 5//7
f 8//8 12//8 9//8
f 7//2 9//2 10//2
f 16//9 17//9 13//9
f 10//2 13//2 14//2
f 11//3 16//3 12//3
f 11//10 14//10 15//10
f 19//3 24//3 20//3
f 14//2 17//2 18//2
f 15//3 20//3 16//3
f 14//11 19//11 15//11
f 21//12 28//12 25//12
f 18//13 23//13 19//13
f 20//14 21//14 17//14
f 18//2 21//2 22//2
f 25//15 27//15 26//15
f 21//2 26//2 22//2
f 24//3 27//3 28//3
f 22//16 27//16 23//16
f 2//1 4//1 3//1
f 4//2 8//2 7//2
f 5//3 11//3 12//3
f 6//3 2//3 1//3
f 7//4 5//4 1//4
f 4//5 2//5 6//5
f 12//6 16//6 13//6
f 7//7 10//7 11//7
f 8//8 6//8 12//8
f 7//2 8//2 9//2
f 16//9 20//9 17//9
f 10//2 9//2 13//2
f 11//3 15//3 16//3
f 11//10 10//10 14//10
f 19//3 23//3 24//3
f 14//2 13//2 17//2
f 15//3 19//3 20//3
f 14//11 18//11 19//11
f 21//12 24//12 28//12
f 18//13 22//13 23//13
f 20//14 24//14 21//14
f 18//2 17//2 21//2
f 25//15 28//15 27//15
f 21//2 25//2 26//2
f 24//3 23//3 27//3
f 22//16 26//16 27//16
o Cube.011_Cube.013
v 0.163759 5.508827 0.010792
v 0.163759 5.551719 0.010792
v 0.163759 5.508827 -0.001517
v 0.163759 5.551719 -0.001517
v 1.126016 5.550302 0.010792
v 1.126016 5.593193 0.010792
v 1.126016 5.550302 -0.001517
v 1.126016 5.593193 -0.001517
v 0.163759 5.508827 -0.001517
v 0.163759 5.508828 0.073003
v 0.163759 5.551719 0.073003
v 0.163759 5.508828 0.060695
v 0.163759 5.551719 0.060695
v 1.126016 5.550302 0.073003
v 1.126016 5.593194 0.073003
v 1.126016 5.550302 0.060694
v 1.126016 5.593194 0.060694
v 0.163759 5.508828 0.060695
vn -1.0000 0.0000 0.0000
vn -0.0000 0.0000 -1.0000
vn 1.0000 0.0000 0.0000
vn 0.0000 0.0000 1.0000
vn 0.0431 -0.9991 0.0000
vn -0.0431 0.9991 0.0000
usemtl None
s off
f 30//17 37//17 29//17
f 32//18 35//18 37//18
f 36//19 33//19 35//19
f 33//20 30//20 29//20
f 35//21 29//21 31//21
f 32//22 34//22 36//22
f 39//17 46//17 38//17
f 41//18 44//18 46//18
f 45//19 42//19 44//19
f 42//20 39//20 38//20
f 44//21 38//21 40//21
f 41//22 43//22 45//22
f 30//17 32//17 37//17
f 32//18 36//18 35//18
f 36//19 34//19 33//19
f 33//20 34//20 30//20
f 35//21 33//21 29//21
f 32//22 30//22 34//22
f 39//17 41//17 46//17
f 41//18 45//18 44//18
f 45//19 43//19 42//19
f 42//20 43//20 39//20
f 44//21 42//21 38//21
f 41//22 39//22 43//22
o Cube.010_Cube.012
v 0.020102 6.299692 0.013708
v 0.020102 7.397691 0.013708
v 0.020102 6.299692 0.062091
v 0.020102 7.397691 0.062091
v -0.036963 6.299692 0.013708
v -0.036963 7.397691 0.013708
v -0.036963 6.299692 0.062091
v -0.036963 7.397691 0.062091
vn 1.0000 -0.0000 -0.0000
vn 0.0000 -0.0000 1.0000
vn -1.0000 0.0000 0.0000
vn -0.0000 0.0000 -1.0000
vn 0.0000 -1.0000 0.0000
vn 0.0000 1.0000 -0.0000
usemtl None
s off
f 48//23 49//23 47//23
f 50//24 53//24 49//24
f 54//25 51//25 53//25
f 52//26 47//26 51//26
f 53//27 47//27 49//27
f 50//28 52//28 54//28
f 48//23 50//23 49//23
f 50//24 54//24 53//24
f 54//25 52//25 51//25
f 52//26 48//26 47//26
f 53//27 51//27 47//27
f 50//28 48//28 52//28
