# Blender v2.78 (sub 0) OBJ File: 'uic60.blend'
# www.blender.org
mtllib uic60.mtl
o Plane.001
v -0.824310 -0.167020 -0.001994
v -0.764701 -0.144134 -0.001994
v -0.824310 -0.167020 -0.992659
v -0.764701 -0.144134 -0.992659
v -0.758196 -0.062436 -0.001994
v -0.758196 -0.062436 -0.992659
v -0.785472 -0.033507 -0.001994
v -0.785472 -0.033507 -0.992659
v -0.780844 -0.000721 -0.001994
v -0.780844 -0.000721 -0.992659
v -0.749211 0.002310 -0.001994
v -0.749211 0.002310 -0.992659
v -0.674113 -0.167020 -0.001994
v -0.733721 -0.144134 -0.001994
v -0.674113 -0.167020 -0.992659
v -0.733721 -0.144134 -0.992659
v -0.740226 -0.062436 -0.001994
v -0.740226 -0.062436 -0.992659
v -0.712950 -0.033507 -0.001994
v -0.712950 -0.033507 -0.992659
v -0.717579 -0.000721 -0.001994
v -0.717579 -0.000721 -0.992659
vt 0.0446 0.6507
vt 0.0024 0.0000
vt 0.0026 0.6507
vt 0.0981 -0.0000
vt 0.0443 -0.0000
vt 0.0984 0.6506
vt 0.1243 -0.0000
vt 0.1245 0.6506
vt 0.1460 -0.0000
vt 0.2184 1.0001
vt 0.1864 0.0001
vt 0.2185 0.0001
vt 0.0027 0.0002
vt 0.0449 0.6509
vt 0.0029 0.6509
vt 0.0984 0.0002
vt 0.0446 0.0002
vt 0.1246 0.0002
vt 0.0987 0.6508
vt 0.1463 0.0002
vt 0.1248 0.6508
vt 0.1542 1.0001
vt 0.1543 0.0001
vt 0.1462 0.6506
vt 0.1863 1.0001
vt 0.1465 0.6508
vn -0.3584 0.9336 0.0000
vn -0.9968 0.0794 0.0000
vn -0.7276 -0.6860 0.0000
vn -0.9902 0.1398 0.0000
vn -0.0954 0.9954 0.0000
vn 0.3584 0.9336 0.0000
vn 0.9968 0.0794 0.0000
vn 0.7276 -0.6860 0.0000
vn 0.9902 0.1398 0.0000
vn 0.0954 0.9954 0.0000
usemtl Material.002
s off
f 2/1/1 3/2/1 1/3/1
f 2/1/2 6/4/2 4/5/2
f 5/6/3 8/7/3 6/4/3
f 7/8/4 10/9/4 8/7/4
f 9/10/5 12/11/5 10/12/5
f 15/13/6 14/14/6 13/15/6
f 18/16/7 14/14/7 16/17/7
f 20/18/8 17/19/8 18/16/8
f 22/20/9 19/21/9 20/18/9
f 12/11/10 21/22/10 22/23/10
f 2/1/1 4/5/1 3/2/1
f 2/1/2 5/6/2 6/4/2
f 5/6/3 7/8/3 8/7/3
f 7/8/4 9/24/4 10/9/4
f 9/10/5 11/25/5 12/11/5
f 15/13/6 16/17/6 14/14/6
f 18/16/7 17/19/7 14/14/7
f 20/18/8 19/21/8 17/19/8
f 22/20/9 21/26/9 19/21/9
f 12/11/10 11/25/10 21/22/10
o Plane.002
v 0.674463 -0.167020 -0.001994
v 0.734071 -0.144134 -0.001994
v 0.674463 -0.167020 -0.992659
v 0.734071 -0.144134 -0.992659
v 0.740576 -0.062436 -0.001994
v 0.740576 -0.062436 -0.992659
v 0.713300 -0.033507 -0.001994
v 0.713300 -0.033507 -0.992659
v 0.717929 -0.000721 -0.001994
v 0.717929 -0.000721 -0.992659
v 0.749561 0.002310 -0.001994
v 0.749561 0.002310 -0.992659
v 0.824660 -0.167020 -0.001994
v 0.765051 -0.144134 -0.001994
v 0.824660 -0.167020 -0.992659
v 0.765051 -0.144134 -0.992659
v 0.758546 -0.062436 -0.001994
v 0.758546 -0.062436 -0.992659
v 0.785822 -0.033507 -0.001994
v 0.785822 -0.033507 -0.992659
v 0.781193 -0.000721 -0.001994
v 0.781193 -0.000721 -0.992659
vt 0.0446 0.6507
vt 0.0024 0.0000
vt 0.0026 0.6507
vt 0.0981 -0.0000
vt 0.0443 -0.0000
vt 0.0984 0.6506
vt 0.1243 -0.0000
vt 0.1245 0.6506
vt 0.1460 -0.0000
vt 0.2184 1.0001
vt 0.1864 0.0001
vt 0.2185 0.0001
vt 0.0027 0.0002
vt 0.0449 0.6509
vt 0.0029 0.6509
vt 0.0984 0.0002
vt 0.0446 0.0002
vt 0.1246 0.0002
vt 0.0987 0.6508
vt 0.1463 0.0002
vt 0.1248 0.6508
vt 0.1542 1.0001
vt 0.1543 0.0001
vt 0.1462 0.6506
vt 0.1863 1.0001
vt 0.1465 0.6508
vn -0.3584 0.9336 0.0000
vn -0.9968 0.0794 0.0000
vn -0.7276 -0.6860 0.0000
vn -0.9902 0.1398 0.0000
vn -0.0954 0.9954 0.0000
vn 0.3584 0.9336 0.0000
vn 0.9968 0.0794 0.0000
vn 0.7276 -0.6860 0.0000
vn 0.9902 0.1398 0.0000
vn 0.0954 0.9954 0.0000
usemtl Material.003
s off
f 24/27/11 25/28/11 23/29/11
f 24/27/12 28/30/12 26/31/12
f 27/32/13 30/33/13 28/30/13
f 29/34/14 32/35/14 30/33/14
f 31/36/15 34/37/15 32/38/15
f 37/39/16 36/40/16 35/41/16
f 40/42/17 36/40/17 38/43/17
f 42/44/18 39/45/18 40/42/18
f 44/46/19 41/47/19 42/44/19
f 34/37/20 43/48/20 44/49/20
f 24/27/11 26/31/11 25/28/11
f 24/27/12 27/32/12 28/30/12
f 27/32/13 29/34/13 30/33/13
f 29/34/14 31/50/14 32/35/14
f 31/36/15 33/51/15 34/37/15
f 37/39/16 38/43/16 36/40/16
f 40/42/17 39/45/17 36/40/17
f 42/44/18 41/47/18 39/45/18
f 44/46/19 43/52/19 41/47/19
f 34/37/20 33/51/20 43/48/20
