# Blender v2.78 (sub 0) OBJ File: 'slup1l.blend'
# www.blender.org
mtllib wire2x2v2_5mR.mtl
o Cube.013_Cube.003
v 2.515933 5.008680 -0.002331
v 2.515933 5.018681 -0.002331
v 2.515933 4.175700 -0.203070
v 2.515933 4.185699 -0.203070
v 2.525933 5.008680 -0.002331
v 2.525933 5.018681 -0.002331
v 2.525933 4.175700 -0.203070
v 2.525933 4.185699 -0.203070
v 2.515933 3.908040 -0.403109
v 2.515933 3.898040 -0.403109
v 2.525933 3.898040 -0.403109
v 2.525933 3.908040 -0.403109
v 2.515933 3.908040 -0.603022
v 2.515933 3.898040 -0.603022
v 2.525933 3.898040 -0.603022
v 2.525933 3.908040 -0.603022
v 2.515933 4.185699 -0.803047
v 2.515933 4.175700 -0.803047
v 2.525933 4.175700 -0.803047
v 2.525933 4.185699 -0.803047
v 2.515933 5.018681 -1.003052
v 2.515933 5.008680 -1.003052
v 2.525933 5.008680 -1.003052
v 2.525933 5.018681 -1.003052
v 2.515933 8.480378 -0.002331
v 2.515933 8.490378 -0.002331
v 2.515933 7.647397 -0.203070
v 2.515933 7.657397 -0.203070
v 2.525933 8.480378 -0.002331
v 2.525933 8.490378 -0.002331
v 2.525933 7.647397 -0.203070
v 2.525933 7.657397 -0.203070
v 2.515933 7.379737 -0.403109
v 2.515933 7.369738 -0.403109
v 2.525933 7.369738 -0.403109
v 2.525933 7.379737 -0.403109
v 2.515933 7.379737 -0.603022
v 2.515933 7.369738 -0.603022
v 2.525933 7.369738 -0.603022
v 2.525933 7.379737 -0.603022
v 2.515933 7.657397 -0.803047
v 2.515933 7.647397 -0.803047
v 2.525933 7.647397 -0.803047
v 2.525933 7.657397 -0.803047
v 2.515933 8.490378 -1.003052
v 2.515933 8.480378 -1.003052
v 2.525933 8.480378 -1.003052
v 2.525933 8.490378 -1.003052
vn -1.0000 0.0000 0.0000
vn 1.0000 0.0000 0.0000
vn 0.0000 0.0000 1.0000
vn 0.0000 -0.2343 0.9722
vn 0.0000 0.2343 -0.9722
vn 0.0000 -0.5845 0.8114
vn 0.0000 0.5846 -0.8114
vn 0.0000 0.5845 0.8114
vn 0.0000 -1.0000 0.0000
vn 0.0000 1.0000 0.0000
vn 0.0000 0.2335 0.9724
vn 0.0000 -0.5845 -0.8114
vn 0.0000 0.0000 -1.0000
vn 0.0000 -0.2335 -0.9724
vn 0.0000 0.5845 -0.8114
vn 0.0000 -0.5846 0.8114
usemtl None
s off
f 1//1 4//1 3//1
f 7//2 12//2 8//2
f 8//2 5//2 7//2
f 6//3 1//3 5//3
f 7//4 1//4 3//4
f 4//5 6//5 8//5
f 11//2 16//2 12//2
f 3//6 11//6 7//6
f 8//7 9//7 4//7
f 3//1 9//1 10//1
f 16//8 17//8 13//8
f 10//9 15//9 11//9
f 12//10 13//10 9//10
f 9//1 14//1 10//1
f 20//11 21//11 17//11
f 13//1 18//1 14//1
f 16//2 19//2 20//2
f 14//12 19//12 15//12
f 21//13 23//13 22//13
f 17//1 22//1 18//1
f 20//2 23//2 24//2
f 18//14 23//14 19//14
f 25//1 28//1 27//1
f 31//2 36//2 32//2
f 32//2 29//2 31//2
f 30//3 25//3 29//3
f 31//4 25//4 27//4
f 28//5 30//5 32//5
f 35//2 40//2 36//2
f 27//6 35//6 31//6
f 32//15 33//15 28//15
f 27//1 33//1 34//1
f 40//8 41//8 37//8
f 34//9 39//9 35//9
f 36//10 37//10 33//10
f 33//1 38//1 34//1
f 44//11 45//11 41//11
f 37//1 42//1 38//1
f 40//2 43//2 44//2
f 38//12 43//12 39//12
f 45//13 47//13 46//13
f 41//1 46//1 42//1
f 44//2 47//2 48//2
f 42//14 47//14 43//14
f 1//1 2//1 4//1
f 7//2 11//2 12//2
f 8//2 6//2 5//2
f 6//3 2//3 1//3
f 7//4 5//4 1//4
f 4//5 2//5 6//5
f 11//2 15//2 16//2
f 3//16 10//16 11//16
f 8//15 12//15 9//15
f 3//1 4//1 9//1
f 16//8 20//8 17//8
f 10//9 14//9 15//9
f 12//10 16//10 13//10
f 9//1 13//1 14//1
f 20//11 24//11 21//11
f 13//1 17//1 18//1
f 16//2 15//2 19//2
f 14//12 18//12 19//12
f 21//13 24//13 23//13
f 17//1 21//1 22//1
f 20//2 19//2 23//2
f 18//14 22//14 23//14
f 25//1 26//1 28//1
f 31//2 35//2 36//2
f 32//2 30//2 29//2
f 30//3 26//3 25//3
f 31//4 29//4 25//4
f 28//5 26//5 30//5
f 35//2 39//2 40//2
f 27//6 34//6 35//6
f 32//15 36//15 33//15
f 27//1 28//1 33//1
f 40//8 44//8 41//8
f 34//9 38//9 39//9
f 36//10 40//10 37//10
f 33//1 37//1 38//1
f 44//11 48//11 45//11
f 37//1 41//1 42//1
f 40//2 39//2 43//2
f 38//12 42//12 43//12
f 45//13 48//13 47//13
f 41//1 45//1 46//1
f 44//2 43//2 47//2
f 42//14 46//14 47//14
